# xmcd
#
# Track frame offsets: 
#        150
#        16910
#        32252
#        45912
#        90278
#        127302
#        150327
#        163243
#        189675
#        203357
#        236525
#        255886
#        296559
#        310821
#
# Disc length: 4218 seconds
#
# Revision: 8
# Processed by: cddbd v1.5.2PL0 Copyright (c) Steve Scherf et al.
# Submitted via: ExactAudioCopy v1.0b3
#
DISCID=a210780e
DTITLE=Various Artist - Say it loud! (Brotherhood, pride and groove on Blue Not
DTITLE=e)
DYEAR=2002
DGENRE=Soul
TTITLE0=Gene Harris - Don't Call Me Nigger Whitey
TTITLE1=Maze - Color Blind
TTITLE2=Z.Z. Hill - Clean Up America
TTITLE3=Marlena Shaw - Woman Of The Ghetto (live)
TTITLE4=Lonnie Smith - I Can't Stand It (live)
TTITLE5=Cannonball Adderley Quintet - Walk Tall
TTITLE6=Eddie Gale - Black Rhythm Happening
TTITLE7=Grant Green - I Don't Want Nobody To Give Me Nothing
TTITLE8=Cannonball Adderley Quintet - Why (Am I Treated So Bad?)
TTITLE9=Lou Donaldson - Say It Loud!
TTITLE10=Donald Byrd - Design A Nation
TTITLE11=Lou Donaldson - If There Is A Hell Below, We're All Going To 
TTITLE11=Go
TTITLE12=Jimmy McGriff - Black Pearl
TTITLE13=Cannonball Adderley Quintet - The Scene (edit-live)
EXTD=Brotherhood, pride and groove on Blue Note YEAR: 2002
EXTT0=
EXTT1=
EXTT2=
EXTT3=
EXTT4=
EXTT5=
EXTT6=
EXTT7=
EXTT8=
EXTT9=
EXTT10=
EXTT11=
EXTT12=
EXTT13=
PLAYORDER=
